#!OML:ASF F:\VICON\USERDATA\INSTALL\rory3\rory3.ASF
:FULLY-SPECIFIED
:DEGREES
87
root 1.99064 18.1528 19.4267 5.8385 -3.15911 -4.10229
lowerback 14.5127 1.62424 4.45821
upperback 0.468973 2.85805 -0.391205
thorax -7.40956 1.22272 -3.52389
lowerneck -3.66111 -1.20802 -1.02514
upperneck -10.6428 -1.30394 3.75541
head -2.72212 -0.710723 1.39843
rclavicle -2.62893e-014 -3.18055e-015
rhumerus -26.0529 19.0314 -88.3918
rradius 112.77
rwrist -4.85974
rhand -32.3116 29.6615
rfingers 7.12502
rthumb -5.54961 -0.245821
lclavicle -2.62893e-014 -3.18055e-015
lhumerus -65.0151 -4.65644 91.5504
lradius 109.707
lwrist 31.9643
lhand -37.5067 13.2488
lfingers 7.12502
lthumb -10.5635 42.9633
rfemur 18.2046 6.75443 31.2104
rtibia 13.3165
rfoot 14.4721 -4.19343
rtoes -6.46491
lfemur -46.3012 -1.38025 -13.1246
ltibia 78.5201
lfoot 3.73792 -12.1903
ltoes -18.2409
88
root 1.97635 18.2236 19.97 5.83829 -2.59903 -4.0463
lowerback 14.3207 1.62148 4.47237
upperback 0.296276 2.83996 -0.559272
thorax -7.48023 1.20578 -3.70418
lowerneck -3.70113 -1.32141 -1.16771
upperneck -10.2425 -1.4482 3.96793
head -2.57518 -0.778745 1.487
rclavicle -3.93594e-014 1.63003e-014
rhumerus -26.6916 19.8579 -88.5987
rradius 113.731
rwrist -5.03946
rhand -32.3898 30.4518
rfingers 7.12502
rthumb -5.62506 0.54648
lclavicle -3.93594e-014 1.63003e-014
lhumerus -66.0299 -3.94307 90.9394
lradius 109.944
lwrist 31.3872
lhand -37.3005 12.7832
lfingers 7.12502
lthumb -10.3645 42.5078
rfemur 21.3107 6.56959 31.3028
rtibia 9.3637
rfoot 20.5559 -5.35199
rtoes 0.793094
lfemur -46.31 -2.59199 -12.9843
ltibia 73.8907
lfoot 3.67966 -10.5501
ltoes -17.4493
89
root 1.96235 18.2927 20.523 5.82864 -2.11045 -4.06729
lowerback 13.9886 1.59437 4.51862
upperback 0.147411 2.79071 -0.683965
thorax -7.45019 1.17704 -3.84288
lowerneck -3.61411 -1.37354 -1.38683
upperneck -9.78552 -1.51241 4.18682
head -2.43459 -0.805172 1.59075
rclavicle -4.25399e-014 -1.07344e-014
rhumerus -27.3695 20.7652 -88.893
rradius 114.549
rwrist -5.13661
rhand -32.2558 31.4368
rfingers 7.12502
rthumb -5.49572 1.5281
lclavicle -4.25399e-014 -1.07344e-014
lhumerus -67.0974 -3.18641 90.3101
lradius 110.26
lwrist 30.8894
lhand -37.6099 15.3024
lfingers 7.12502
lthumb -10.663 45.0119
rfemur 24.9996 6.47224 31.4286
rtibia 4.3594
rfoot 27.0584 -6.66439
rtoes 8.82466
lfemur -45.8819 -3.982 -12.5363
ltibia 69.2279
lfoot 3.6533 -8.72231
ltoes -14.6767
90
root 1.95784 18.3603 21.102 5.87034 -2.34295 -4.20987
lowerback 13.342 1.80872 4.62783
upperback 0.0827874 3.05627 -0.778599
thorax -7.11939 1.31165 -4.02498
lowerneck -3.2231 -1.46187 -1.96176
upperneck -9.63372 -1.59733 4.67347
head -2.44734 -0.842107 1.85482
rclavicle -3.30976e-014 -1.19271e-015
rhumerus -27.8938 21.8013 -89.0603
rradius 115.151
rwrist -5.2027
rhand -32.1775 32.0405
rfingers 7.12502
rthumb -5.42015 2.12979
lclavicle -3.30976e-014 -1.19271e-015
lhumerus -67.9127 -2.45217 89.7819
lradius 110.426
lwrist 30.5742
lhand -38.0712 17.4446
lfingers 7.12502
lthumb -11.1079 47.1306
rfemur 28.4573 7.10823 31.59
rtibia 1.08139e-013
rfoot 32.7013 -7.10755
rtoes 13.3859
lfemur -45.0526 -4.66285 -12.0833
ltibia 64.4378
lfoot 3.13602 -6.95875
ltoes -14.2639
91
root 1.94814 18.424 21.6604 6.14074 -2.00839 -4.16374
lowerback 12.8495 1.83721 4.5624
upperback -0.0793714 3.05958 -0.857746
thorax -7.01452 1.31572 -4.05275
lowerneck -3.11492 -1.54107 -2.29733
upperneck -9.4784 -1.69813 4.80019
head -2.40938 -0.883852 1.95569
rclavicle -1.43125e-014 -1.07344e-014
rhumerus -28.3202 22.7832 -89.1704
rradius 115.548
rwrist -5.21582
rhand -32.0523 32.9083
rfingers 7.12502
rthumb -5.29921 2.99457
lclavicle -1.43125e-014 -1.07344e-014
lhumerus -68.6029 -1.8172 89.3571
lradius 110.688
lwrist 30.3387
lhand -38.4279 17.2663
lfingers 7.12502
lthumb -11.4519 46.9336
rfemur 29.3897 7.16644 31.7128
rtibia -2.8625e-014
rfoot 35.3331 -6.80422
rtoes 15.5075
lfemur -44.6863 -5.692 -11.8356
ltibia 59.3366
lfoot 3.3533 -5.49656
ltoes -14.5912
92
root 1.93463 18.484 22.2011 6.44777 -1.56482 -3.93768
lowerback 12.5913 1.79214 4.15208
upperback -0.276695 2.92933 -0.896411
thorax -7.11093 1.26005 -3.83276
lowerneck -3.32228 -1.61926 -2.22726
upperneck -9.23253 -1.83767 4.38174
head -2.28724 -0.942182 1.79901
rclavicle -2.22639e-014 -3.97569e-015
rhumerus -28.8236 23.7162 -89.2998
rradius 115.78
rwrist -5.23746
rhand -31.807 33.404
rfingers 7.12502
rthumb -5.06235 3.48451
lclavicle -2.22639e-014 -3.97569e-015
lhumerus -69.1635 -1.14549 89.0013
lradius 111.108
lwrist 30.2899
lhand -37.94 12.7964
lfingers 7.12502
lthumb -10.9814 42.4892
rfemur 30.2823 7.08605 31.7146
rtibia 3.49861e-014
rfoot 36.7725 -6.32786
rtoes 17.2525
lfemur -44.3673 -6.72452 -11.7522
ltibia 53.9688
lfoot 4.38465 -5.00325
ltoes -16.5985
93
root 1.92013 18.5333 22.7291 6.74441 -1.16096 -3.93332
lowerback 12.4845 1.73248 3.91339
upperback -0.467735 2.81897 -0.839738
thorax -7.27963 1.20809 -3.61927
lowerneck -3.71362 -1.65374 -2.38104
upperneck -8.84811 -1.90127 4.1585
head -2.08952 -0.958207 1.74093
rclavicle 2.3556e-014 -1.27222e-014
rhumerus -29.455 24.6488 -89.4886
rradius 115.887
rwrist -5.26369
rhand -31.9829 32.4389
rfingers 7.12502
rthumb -5.23218 2.52349
lclavicle 2.3556e-014 -1.27222e-014
lhumerus -69.4238 -0.566959 88.6961
lradius 111.468
lwrist 30.3506
lhand -36.5705 8.60427
lfingers 7.12502
lthumb -9.66029 38.3628
rfemur 28.6355 6.99726 32.132
rtibia 4.95573
rfoot 34.828 -5.68995
rtoes 18.9858
lfemur -43.8143 -7.53222 -11.4094
ltibia 48.3925
lfoot 5.27039 -3.73533
ltoes -14.4846
94
root 1.9081 18.5669 23.2576 6.78786 -0.945662 -4.09846
lowerback 12.4453 1.67263 3.90212
upperback -0.455585 2.74057 -0.777291
thorax -7.25488 1.17252 -3.53039
lowerneck -4.21662 -1.63513 -2.47605
upperneck -8.5372 -1.88803 3.92277
head -1.90148 -0.938024 1.6686
rclavicle -5.36719e-015 -7.95139e-016
rhumerus -30.0104 25.5324 -89.7913
rradius 115.836
rwrist -5.18045
rhand -32.0731 31.9245
rfingers 7.12502
rthumb -5.31934 2.01124
lclavicle -5.36719e-015 -7.95139e-016
lhumerus -69.3436 0.0472858 88.4007
lradius 111.762
lwrist 30.3097
lhand -36.2567 11.4494
lfingers 7.12502
lthumb -9.35752 41.2217
rfemur 26.9888 7.0662 32.7472
rtibia 10.4226
rfoot 32.3044 -4.91594
rtoes 19.3906
lfemur -42.8606 -8.20111 -10.9214
ltibia 43.2486
lfoot 5.48669 -2.84302
ltoes -17.5066
95
root 1.89037 18.5825 23.7742 6.67309 -1.00479 -4.24937
lowerback 12.5182 1.68905 3.77724
upperback -0.317092 2.74612 -0.744017
thorax -7.15431 1.18537 -3.42467
lowerneck -4.41349 -1.58417 -2.42042
upperneck -8.682 -1.83652 3.54718
head -1.9185 -0.905732 1.53674
rclavicle 5.29761e-014 9.93923e-015
rhumerus -30.3223 26.2251 -90.0839
rradius 115.594
rwrist -5.08527
rhand -31.929 31.9096
rfingers 7.12502
rthumb -5.18014 1.99291
lclavicle 5.29761e-014 9.93923e-015
lhumerus -68.8782 0.568788 88.0752
lradius 111.955
lwrist 30.3215
lhand -35.6675 9.60558
lfingers 7.12502
lthumb -8.78892 39.4026
rfemur 25.8088 7.37399 33.3381
rtibia 15.3523
rfoot 30.2489 -4.09084
rtoes 17.9335
lfemur -41.5186 -8.69353 -10.4644
ltibia 37.9813
lfoot 5.92173 -2.5758
ltoes -19.8911
96
root 1.86523 18.613 24.2749 6.42019 -0.929541 -4.85269
lowerback 12.9223 1.6429 4.11202
upperback -0.182666 2.75557 -0.643241
thorax -7.22775 1.1789 -3.52292
lowerneck -4.61093 -1.56278 -2.18269
upperneck -8.86364 -1.82582 3.23086
head -1.94677 -0.900611 1.39352
rclavicle 1.5207e-014 -1.11319e-014
rhumerus -30.5702 26.6872 -90.4294
rradius 115.071
rwrist -5.11998
rhand -31.6195 32.3784
rfingers 7.12502
rthumb -4.88134 2.45467
lclavicle 1.5207e-014 -1.11319e-014
lhumerus -68.2176 0.78097 87.7443
lradius 112.048
lwrist 30.1665
lhand -36.162 10.0549
lfingers 7.12502
lthumb -9.26616 39.8313
rfemur 24.8778 7.56044 34.4439
rtibia 19.7917
rfoot 28.9864 -3.77611
rtoes 16.7445
lfemur -39.2096 -8.30914 -10.181
ltibia 33.4853
lfoot 4.24609 -5.99832
ltoes -35.4067
97
root 1.84865 18.5558 24.7929 6.13174 -0.968365 -5.59829
lowerback 13.1173 1.63967 4.56662
upperback -0.0880387 2.83898 -0.481572
thorax -7.2163 1.2076 -3.62879
lowerneck -4.92421 -1.60036 -2.01257
upperneck -8.65594 -1.89154 3.03735
head -1.82566 -0.932495 1.29508
rclavicle -3.52843e-014 1.55052e-014
rhumerus -31.2721 27.1309 -90.9005
rradius 114.399
rwrist -5.23675
rhand -32.0223 30.7418
rfingers 7.12502
rthumb -5.27027 0.827295
lclavicle -3.52843e-014 1.55052e-014
lhumerus -67.7311 0.838595 87.5
lradius 112.164
lwrist 29.9656
lhand -36.2147 11.4703
lfingers 7.12502
lthumb -9.31694 41.2444
rfemur 24.2531 7.87016 35.6458
rtibia 24.0255
rfoot 28.349 -3.95417
rtoes 16.9276
lfemur -38.4857 -9.25273 -8.7543
ltibia 29.159
lfoot 6.64445 -3.57977
ltoes -25.8966
98
root 1.83576 18.5272 25.3163 6.01327 -1.0493 -6.01928
lowerback 13.1063 1.64037 4.74127
upperback -0.0642841 2.87099 -0.406122
thorax -7.17742 1.21997 -3.65154
lowerneck -5.16891 -1.58218 -1.85047
upperneck -8.45379 -1.8822 2.86906
head -1.72088 -0.927813 1.20777
rclavicle 1.05356e-014 7.55382e-015
rhumerus -32.1954 27.307 -91.4878
rradius 113.556
rwrist -5.44707
rhand -33.1422 24.8197
rfingers 7.12502
rthumb -6.35147 -5.06508
lclavicle 1.05356e-014 7.55382e-015
lhumerus -67.294 0.873038 87.3013
lradius 112.358
lwrist 29.7557
lhand -35.3104 12.221
lfingers 7.12502
lthumb -8.44434 42.0322
rfemur 23.3894 7.4551 35.9585
rtibia 28.1977
rfoot 28.1426 -4.17165
rtoes 18.6461
lfemur -37.4021 -9.76703 -8.05516
ltibia 26.0091
lfoot 7.17083 -1.4932
ltoes -20.2108
99
root 1.83109 18.4992 25.8489 5.96502 -1.21419 -6.36902
lowerback 12.8693 1.65077 4.98328
upperback 0.0947099 2.90542 -0.381511
thorax -6.85982 1.24256 -3.75185
lowerneck -5.29918 -1.52881 -1.77874
upperneck -8.72756 -1.81175 2.77858
head -1.78982 -0.892935 1.16881
rclavicle -7.26558e-014 -3.18055e-015
rhumerus -32.8381 27.1947 -91.8163
rradius 112.404
rwrist -5.62303
rhand -31.9772 28.7215
rfingers 7.12502
rthumb -5.22669 -1.19407
lclavicle -7.26558e-014 -3.18055e-015
lhumerus -66.3188 0.909889 87.1665
lradius 112.339
lwrist 29.7168
lhand -35.5758 12.631
lfingers 7.12502
lthumb -8.7005 42.4317
rfemur 22.2781 7.05002 36.0258
rtibia 32.6304
rfoot 27.9951 -4.27221
rtoes 19.0116
lfemur -36.1729 -10.344 -7.43067
ltibia 22.8416
lfoot 7.68103 0.264194
ltoes -16.7855
100
root 1.82636 18.4558 26.3693 5.82658 -1.24724 -6.35445
lowerback 12.7052 1.64308 4.92265
upperback 0.301085 2.86459 -0.470741
thorax -6.54878 1.23768 -3.79129
lowerneck -5.16874 -1.49528 -1.81074
upperneck -9.17939 -1.75062 2.92511
head -1.95932 -0.865671 1.22864
rclavicle 2.69353e-014 -1.43125e-014
rhumerus -33.4179 26.917 -92.076
rradius 111.064
rwrist -5.67607
rhand -30.9246 30.7914
rfingers 7.12502
rthumb -4.21035 0.853251
lclavicle 2.69353e-014 -1.43125e-014
lhumerus -65.0676 0.746446 87.1049
lradius 112.139
lwrist 29.6345
lhand -36.2127 13.368
lfingers 7.12502
lthumb -9.31499 43.1422
rfemur 20.9873 6.51507 35.704
rtibia 37.2439
rfoot 28.2497 -4.70185
rtoes 16.3377
lfemur -35.064 -10.0643 -7.93075
ltibia 21.1809
lfoot 7.60615 1.00979
ltoes -18.0334
101
root 1.81166 18.404 26.8775 5.69524 -1.18024 -6.16718
lowerback 12.582 1.60472 4.5882
upperback 0.458275 2.74625 -0.592117
thorax -6.33254 1.19828 -3.70077
lowerneck -4.68273 -1.44804 -1.89841
upperneck -9.75625 -1.66065 3.22667
head -2.23328 -0.828779 1.35466
rclavicle -5.1684e-014 -1.59028e-015
rhumerus -34.1766 26.4931 -92.4476
rradius 109.719
rwrist -5.69717
rhand -30.1721 31.0408
rfingers 7.12502
rthumb -3.48365 1.08949
lclavicle -5.1684e-014 -1.59028e-015
lhumerus -63.7059 0.404475 87.005
lradius 111.865
lwrist 29.8765
lhand -36.582 14.4677
lfingers 7.12502
lthumb -9.67136 44.2257
rfemur 19.3393 6.07431 35.3527
rtibia 42.1442
rfoot 28.8404 -5.87706
rtoes 13.0685
lfemur -34.0083 -9.41957 -8.86155
ltibia 20.1026
lfoot 7.67514 1.85929
ltoes -21.4184
